<?xml version="1.0" standalone="no"?>
<!DOCTYPE svg PUBLIC "-//W3C//DTD SVG 1.1//EN" "http://www.w3.org/Graphics/SVG/1.1/DTD/svg11.dtd">
<svg xmlns="http://www.w3.org/2000/svg" xmlns:xlink="http://www.w3.org/1999/xlink" width="810" zoomAndPan="magnify" viewBox="0 0 810 809.999993" height="810" preserveAspectRatio="xMidYMid meet" version="1.0"><defs><g/></defs><g fill="#9b7250" fill-opacity="1"><g transform="translate(148.883794, 476.666813)"><g><path d="M 26.296875 0 L 26.265625 -15.34375 L 18.734375 -2.703125 L 16.078125 -2.703125 L 8.578125 -15.015625 L 8.578125 0 L 3.03125 0 L 3.03125 -25.578125 L 7.921875 -25.578125 L 17.5 -9.6875 L 26.921875 -25.578125 L 31.78125 -25.578125 L 31.859375 0 Z M 26.296875 0 "/></g></g></g><g fill="#9b7250" fill-opacity="1"><g transform="translate(189.245452, 476.666813)"><g><path d="M 15.421875 0.4375 C 12.765625 0.4375 10.367188 -0.132812 8.234375 -1.28125 C 6.109375 -2.425781 4.441406 -4 3.234375 -6 C 2.023438 -8.007812 1.421875 -10.269531 1.421875 -12.78125 C 1.421875 -15.289062 2.023438 -17.550781 3.234375 -19.5625 C 4.441406 -21.570312 6.109375 -23.148438 8.234375 -24.296875 C 10.367188 -25.441406 12.765625 -26.015625 15.421875 -26.015625 C 18.066406 -26.015625 20.445312 -25.441406 22.5625 -24.296875 C 24.6875 -23.148438 26.359375 -21.570312 27.578125 -19.5625 C 28.796875 -17.550781 29.40625 -15.289062 29.40625 -12.78125 C 29.40625 -10.269531 28.796875 -8.007812 27.578125 -6 C 26.359375 -4 24.6875 -2.425781 22.5625 -1.28125 C 20.445312 -0.132812 18.066406 0.4375 15.421875 0.4375 Z M 15.421875 -4.609375 C 16.929688 -4.609375 18.289062 -4.953125 19.5 -5.640625 C 20.71875 -6.335938 21.675781 -7.304688 22.375 -8.546875 C 23.070312 -9.785156 23.421875 -11.195312 23.421875 -12.78125 C 23.421875 -14.363281 23.070312 -15.773438 22.375 -17.015625 C 21.675781 -18.265625 20.71875 -19.234375 19.5 -19.921875 C 18.289062 -20.617188 16.929688 -20.96875 15.421875 -20.96875 C 13.910156 -20.96875 12.546875 -20.617188 11.328125 -19.921875 C 10.109375 -19.234375 9.148438 -18.265625 8.453125 -17.015625 C 7.765625 -15.773438 7.421875 -14.363281 7.421875 -12.78125 C 7.421875 -11.195312 7.765625 -9.785156 8.453125 -8.546875 C 9.148438 -7.304688 10.109375 -6.335938 11.328125 -5.640625 C 12.546875 -4.953125 13.910156 -4.609375 15.421875 -4.609375 Z M 15.421875 -4.609375 "/></g></g></g><g fill="#9b7250" fill-opacity="1"><g transform="translate(225.55284, 476.666813)"><g><path d="M 3.03125 -25.578125 L 14.65625 -25.578125 C 17.425781 -25.578125 19.875 -25.046875 22 -23.984375 C 24.132812 -22.921875 25.789062 -21.425781 26.96875 -19.5 C 28.15625 -17.582031 28.75 -15.34375 28.75 -12.78125 C 28.75 -10.226562 28.15625 -7.988281 26.96875 -6.0625 C 25.789062 -4.132812 24.132812 -2.640625 22 -1.578125 C 19.875 -0.523438 17.425781 0 14.65625 0 L 3.03125 0 Z M 14.359375 -4.859375 C 16.910156 -4.859375 18.945312 -5.566406 20.46875 -6.984375 C 22 -8.410156 22.765625 -10.34375 22.765625 -12.78125 C 22.765625 -15.21875 22 -17.148438 20.46875 -18.578125 C 18.945312 -20.003906 16.910156 -20.71875 14.359375 -20.71875 L 8.953125 -20.71875 L 8.953125 -4.859375 Z M 14.359375 -4.859375 "/></g></g></g><g fill="#9b7250" fill-opacity="1"><g transform="translate(261.20278, 476.666813)"><g><path d="M 22.828125 -4.75 L 22.828125 0 L 3.03125 0 L 3.03125 -25.578125 L 22.359375 -25.578125 L 22.359375 -20.828125 L 8.90625 -20.828125 L 8.90625 -15.265625 L 20.78125 -15.265625 L 20.78125 -10.671875 L 8.90625 -10.671875 L 8.90625 -4.75 Z M 22.828125 -4.75 "/></g></g></g><g fill="#9b7250" fill-opacity="1"><g transform="translate(291.191384, 476.666813)"><g><path d="M 19.328125 0 L 14.390625 -7.125 L 8.953125 -7.125 L 8.953125 0 L 3.03125 0 L 3.03125 -25.578125 L 14.09375 -25.578125 C 16.363281 -25.578125 18.332031 -25.195312 20 -24.4375 C 21.664062 -23.6875 22.945312 -22.613281 23.84375 -21.21875 C 24.75 -19.832031 25.203125 -18.191406 25.203125 -16.296875 C 25.203125 -14.390625 24.742188 -12.75 23.828125 -11.375 C 22.921875 -10 21.628906 -8.945312 19.953125 -8.21875 L 25.6875 0 Z M 19.21875 -16.296875 C 19.21875 -17.734375 18.753906 -18.832031 17.828125 -19.59375 C 16.898438 -20.363281 15.546875 -20.75 13.765625 -20.75 L 8.953125 -20.75 L 8.953125 -11.84375 L 13.765625 -11.84375 C 15.546875 -11.84375 16.898438 -12.226562 17.828125 -13 C 18.753906 -13.78125 19.21875 -14.878906 19.21875 -16.296875 Z M 19.21875 -16.296875 "/></g></g></g><g fill="#9b7250" fill-opacity="1"><g transform="translate(323.51757, 476.666813)"><g><path d="M 26.484375 -25.578125 L 26.484375 0 L 21.625 0 L 8.875 -15.53125 L 8.875 0 L 3.03125 0 L 3.03125 -25.578125 L 7.921875 -25.578125 L 20.640625 -10.046875 L 20.640625 -25.578125 Z M 26.484375 -25.578125 "/></g></g></g><g fill="#9b7250" fill-opacity="1"><g transform="translate(358.515911, 476.666813)"><g/></g></g><g fill="#9b7250" fill-opacity="1"><g transform="translate(374.332856, 476.666813)"><g/></g></g><g fill="#9b7250" fill-opacity="1"><g transform="translate(390.166573, 476.666813)"><g><path d="M 19.875 -5.484375 L 8 -5.484375 L 5.734375 0 L -0.328125 0 L 11.0625 -25.578125 L 16.90625 -25.578125 L 28.34375 0 L 22.140625 0 Z M 18.015625 -9.96875 L 13.953125 -19.765625 L 9.90625 -9.96875 Z M 18.015625 -9.96875 "/></g></g></g><g fill="#9b7250" fill-opacity="1"><g transform="translate(423.625041, 476.666813)"><g><path d="M 14.09375 -25.578125 C 16.363281 -25.578125 18.332031 -25.195312 20 -24.4375 C 21.664062 -23.6875 22.945312 -22.613281 23.84375 -21.21875 C 24.75 -19.832031 25.203125 -18.191406 25.203125 -16.296875 C 25.203125 -14.421875 24.75 -12.78125 23.84375 -11.375 C 22.945312 -9.976562 21.664062 -8.90625 20 -8.15625 C 18.332031 -7.414062 16.363281 -7.046875 14.09375 -7.046875 L 8.953125 -7.046875 L 8.953125 0 L 3.03125 0 L 3.03125 -25.578125 Z M 13.765625 -11.875 C 15.546875 -11.875 16.898438 -12.253906 17.828125 -13.015625 C 18.753906 -13.785156 19.21875 -14.878906 19.21875 -16.296875 C 19.21875 -17.734375 18.753906 -18.832031 17.828125 -19.59375 C 16.898438 -20.363281 15.546875 -20.75 13.765625 -20.75 L 8.953125 -20.75 L 8.953125 -11.875 Z M 13.765625 -11.875 "/></g></g></g><g fill="#9b7250" fill-opacity="1"><g transform="translate(455.841656, 476.666813)"><g><path d="M 19.875 -5.484375 L 8 -5.484375 L 5.734375 0 L -0.328125 0 L 11.0625 -25.578125 L 16.90625 -25.578125 L 28.34375 0 L 22.140625 0 Z M 18.015625 -9.96875 L 13.953125 -19.765625 L 9.90625 -9.96875 Z M 18.015625 -9.96875 "/></g></g></g><g fill="#9b7250" fill-opacity="1"><g transform="translate(489.300124, 476.666813)"><g><path d="M 19.328125 0 L 14.390625 -7.125 L 8.953125 -7.125 L 8.953125 0 L 3.03125 0 L 3.03125 -25.578125 L 14.09375 -25.578125 C 16.363281 -25.578125 18.332031 -25.195312 20 -24.4375 C 21.664062 -23.6875 22.945312 -22.613281 23.84375 -21.21875 C 24.75 -19.832031 25.203125 -18.191406 25.203125 -16.296875 C 25.203125 -14.390625 24.742188 -12.75 23.828125 -11.375 C 22.921875 -10 21.628906 -8.945312 19.953125 -8.21875 L 25.6875 0 Z M 19.21875 -16.296875 C 19.21875 -17.734375 18.753906 -18.832031 17.828125 -19.59375 C 16.898438 -20.363281 15.546875 -20.75 13.765625 -20.75 L 8.953125 -20.75 L 8.953125 -11.84375 L 13.765625 -11.84375 C 15.546875 -11.84375 16.898438 -12.226562 17.828125 -13 C 18.753906 -13.78125 19.21875 -14.878906 19.21875 -16.296875 Z M 19.21875 -16.296875 "/></g></g></g><g fill="#9b7250" fill-opacity="1"><g transform="translate(521.626318, 476.666813)"><g><path d="M 8.328125 -20.75 L 0.140625 -20.75 L 0.140625 -25.578125 L 22.4375 -25.578125 L 22.4375 -20.75 L 14.25 -20.75 L 14.25 0 L 8.328125 0 Z M 8.328125 -20.75 "/></g></g></g><g fill="#9b7250" fill-opacity="1"><g transform="translate(549.679107, 476.666813)"><g><path d="M 26.296875 0 L 26.265625 -15.34375 L 18.734375 -2.703125 L 16.078125 -2.703125 L 8.578125 -15.015625 L 8.578125 0 L 3.03125 0 L 3.03125 -25.578125 L 7.921875 -25.578125 L 17.5 -9.6875 L 26.921875 -25.578125 L 31.78125 -25.578125 L 31.859375 0 Z M 26.296875 0 "/></g></g></g><g fill="#9b7250" fill-opacity="1"><g transform="translate(590.040758, 476.666813)"><g><path d="M 22.828125 -4.75 L 22.828125 0 L 3.03125 0 L 3.03125 -25.578125 L 22.359375 -25.578125 L 22.359375 -20.828125 L 8.90625 -20.828125 L 8.90625 -15.265625 L 20.78125 -15.265625 L 20.78125 -10.671875 L 8.90625 -10.671875 L 8.90625 -4.75 Z M 22.828125 -4.75 "/></g></g></g><g fill="#9b7250" fill-opacity="1"><g transform="translate(620.029354, 476.666813)"><g><path d="M 26.484375 -25.578125 L 26.484375 0 L 21.625 0 L 8.875 -15.53125 L 8.875 0 L 3.03125 0 L 3.03125 -25.578125 L 7.921875 -25.578125 L 20.640625 -10.046875 L 20.640625 -25.578125 Z M 26.484375 -25.578125 "/></g></g></g><g fill="#9b7250" fill-opacity="1"><g transform="translate(655.021839, 476.666813)"><g><path d="M 8.328125 -20.75 L 0.140625 -20.75 L 0.140625 -25.578125 L 22.4375 -25.578125 L 22.4375 -20.75 L 14.25 -20.75 L 14.25 0 L 8.328125 0 Z M 8.328125 -20.75 "/></g></g></g><g fill="#9b7250" fill-opacity="1"><g transform="translate(683.074627, 476.666813)"><g><path d="M 11.4375 0.4375 C 9.414062 0.4375 7.457031 0.164062 5.5625 -0.375 C 3.675781 -0.925781 2.160156 -1.640625 1.015625 -2.515625 L 3.03125 -6.984375 C 4.125 -6.171875 5.425781 -5.519531 6.9375 -5.03125 C 8.445312 -4.550781 9.957031 -4.3125 11.46875 -4.3125 C 13.144531 -4.3125 14.382812 -4.5625 15.1875 -5.0625 C 16 -5.5625 16.40625 -6.222656 16.40625 -7.046875 C 16.40625 -7.660156 16.164062 -8.164062 15.6875 -8.5625 C 15.21875 -8.96875 14.609375 -9.289062 13.859375 -9.53125 C 13.117188 -9.78125 12.113281 -10.050781 10.84375 -10.34375 C 8.894531 -10.800781 7.300781 -11.257812 6.0625 -11.71875 C 4.820312 -12.1875 3.753906 -12.929688 2.859375 -13.953125 C 1.972656 -14.972656 1.53125 -16.335938 1.53125 -18.046875 C 1.53125 -19.535156 1.929688 -20.878906 2.734375 -22.078125 C 3.546875 -23.285156 4.757812 -24.242188 6.375 -24.953125 C 7.988281 -25.660156 9.96875 -26.015625 12.3125 -26.015625 C 13.945312 -26.015625 15.539062 -25.816406 17.09375 -25.421875 C 18.65625 -25.035156 20.019531 -24.476562 21.1875 -23.75 L 19.359375 -19.25 C 16.992188 -20.59375 14.632812 -21.265625 12.28125 -21.265625 C 10.625 -21.265625 9.398438 -20.992188 8.609375 -20.453125 C 7.816406 -19.921875 7.421875 -19.21875 7.421875 -18.34375 C 7.421875 -17.46875 7.875 -16.816406 8.78125 -16.390625 C 9.695312 -15.960938 11.09375 -15.539062 12.96875 -15.125 C 14.914062 -14.664062 16.507812 -14.203125 17.75 -13.734375 C 19 -13.273438 20.066406 -12.546875 20.953125 -11.546875 C 21.835938 -10.546875 22.28125 -9.191406 22.28125 -7.484375 C 22.28125 -6.023438 21.875 -4.691406 21.0625 -3.484375 C 20.25 -2.285156 19.023438 -1.332031 17.390625 -0.625 C 15.753906 0.0820312 13.769531 0.4375 11.4375 0.4375 Z M 11.4375 0.4375 "/></g></g></g><g fill="#1f3250" fill-opacity="1"><g transform="translate(55.612039, 426.078485)"><g><path d="M 7.171875 -98.546875 L 37.75 -98.546875 C 46.988281 -98.546875 54.351562 -96.570312 59.84375 -92.625 C 65.34375 -88.6875 68.09375 -82.300781 68.09375 -73.46875 C 68.09375 -63.59375 63.988281 -56.546875 55.78125 -52.328125 C 69.800781 -49.859375 76.8125 -41.570312 76.8125 -27.46875 C 76.8125 -19.1875 73.941406 -12.535156 68.203125 -7.515625 C 62.472656 -2.503906 54.59375 0 44.5625 0 L 7.171875 0 Z M 29.625 -59.96875 L 31.421875 -59.96875 C 36.429688 -59.96875 40.171875 -60.84375 42.640625 -62.59375 C 45.109375 -64.34375 46.34375 -67.207031 46.34375 -71.1875 C 46.34375 -77.882812 41.367188 -81.234375 31.421875 -81.234375 L 29.625 -81.234375 Z M 29.625 -17.328125 L 36.671875 -17.328125 C 47.660156 -17.328125 53.15625 -20.988281 53.15625 -28.3125 C 53.15625 -32.6875 51.78125 -35.828125 49.03125 -37.734375 C 46.289062 -39.648438 42.171875 -40.609375 36.671875 -40.609375 L 29.625 -40.609375 Z M 29.625 -17.328125 "/></g></g></g><g fill="#1f3250" fill-opacity="1"><g transform="translate(132.758381, 426.078485)"><g><path d="M 57.21875 -98.546875 L 97 0 L 72.859375 0 L 65.578125 -19.703125 L 28.078125 -19.703125 L 20.78125 0 L -3.34375 0 L 36.4375 -98.546875 Z M 57.9375 -39.421875 L 46.9375 -68.09375 L 46.703125 -68.09375 L 35.71875 -39.421875 Z M 57.9375 -39.421875 "/></g></g></g><g fill="#1f3250" fill-opacity="1"><g transform="translate(223.99665, 426.078485)"><g><path d="M 7.171875 -98.546875 L 42.40625 -98.546875 C 51.882812 -98.546875 59.609375 -96.015625 65.578125 -90.953125 C 71.546875 -85.898438 74.53125 -78.675781 74.53125 -69.28125 C 74.53125 -62.03125 72.71875 -55.957031 69.09375 -51.0625 C 65.476562 -46.164062 60.5625 -42.722656 54.34375 -40.734375 L 88.28125 0 L 59.734375 0 L 29.625 -38.9375 L 29.625 0 L 7.171875 0 Z M 29.625 -54.828125 L 32.25 -54.828125 C 34.320312 -54.828125 36.070312 -54.863281 37.5 -54.9375 C 38.9375 -55.019531 40.570312 -55.300781 42.40625 -55.78125 C 44.238281 -56.257812 45.710938 -56.9375 46.828125 -57.8125 C 47.941406 -58.6875 48.894531 -59.957031 49.6875 -61.625 C 50.488281 -63.300781 50.890625 -65.332031 50.890625 -67.71875 C 50.890625 -70.113281 50.488281 -72.144531 49.6875 -73.8125 C 48.894531 -75.488281 47.941406 -76.765625 46.828125 -77.640625 C 45.710938 -78.515625 44.238281 -79.191406 42.40625 -79.671875 C 40.570312 -80.148438 38.9375 -80.425781 37.5 -80.5 C 36.070312 -80.582031 34.320312 -80.625 32.25 -80.625 L 29.625 -80.625 Z M 29.625 -54.828125 "/></g></g></g><g fill="#1f3250" fill-opacity="1"><g transform="translate(307.114134, 426.078485)"><g><path d="M 29.625 -98.546875 L 29.625 0 L 7.171875 0 L 7.171875 -98.546875 Z M 29.625 -98.546875 "/></g></g></g><g fill="#1f3250" fill-opacity="1"><g transform="translate(341.507032, 426.078485)"><g><path d="M 29.625 -98.546875 L 29.625 -19.703125 L 63.546875 -19.703125 L 63.546875 0 L 7.171875 0 L 7.171875 -98.546875 Z M 29.625 -98.546875 "/></g></g></g><g fill="#1f3250" fill-opacity="1"><g transform="translate(406.591647, 426.078485)"><g><path d="M 2.75 -49.328125 C 2.75 -63.585938 7.601562 -75.65625 17.3125 -85.53125 C 27.03125 -95.40625 38.738281 -100.34375 52.4375 -100.34375 C 66.21875 -100.34375 77.925781 -95.421875 87.5625 -85.578125 C 97.195312 -75.742188 102.015625 -63.660156 102.015625 -49.328125 C 102.015625 -34.921875 97.273438 -22.796875 87.796875 -12.953125 C 78.316406 -3.117188 66.53125 1.796875 52.4375 1.796875 C 38.019531 1.796875 26.132812 -3.078125 16.78125 -12.828125 C 7.425781 -22.585938 2.75 -34.753906 2.75 -49.328125 Z M 27 -49.328125 C 27 -44.148438 27.796875 -39.429688 29.390625 -35.171875 C 30.984375 -30.910156 33.769531 -27.304688 37.75 -24.359375 C 41.726562 -21.421875 46.625 -19.953125 52.4375 -19.953125 C 60.800781 -19.953125 67.113281 -22.816406 71.375 -28.546875 C 75.632812 -34.285156 77.765625 -41.210938 77.765625 -49.328125 C 77.765625 -57.378906 75.59375 -64.289062 71.25 -70.0625 C 66.914062 -75.832031 60.644531 -78.71875 52.4375 -78.71875 C 44.3125 -78.71875 38.039062 -75.832031 33.625 -70.0625 C 29.207031 -64.289062 27 -57.378906 27 -49.328125 Z M 27 -49.328125 "/></g></g></g><g fill="#1f3250" fill-opacity="1"><g transform="translate(508.936221, 426.078485)"><g><path d="M 59.609375 -20.3125 C 63.035156 -20.3125 66.359375 -20.828125 69.578125 -21.859375 C 72.804688 -22.890625 75.175781 -23.882812 76.6875 -24.84375 L 78.953125 -26.40625 L 88.515625 -7.28125 C 88.191406 -7.039062 87.75 -6.722656 87.1875 -6.328125 C 86.632812 -5.929688 85.34375 -5.195312 83.3125 -4.125 C 81.28125 -3.050781 79.109375 -2.113281 76.796875 -1.3125 C 74.492188 -0.519531 71.46875 0.191406 67.71875 0.828125 C 63.976562 1.472656 60.117188 1.796875 56.140625 1.796875 C 46.984375 1.796875 38.300781 -0.453125 30.09375 -4.953125 C 21.894531 -9.453125 15.285156 -15.644531 10.265625 -23.53125 C 5.253906 -31.414062 2.75 -39.9375 2.75 -49.09375 C 2.75 -56.019531 4.222656 -62.664062 7.171875 -69.03125 C 10.117188 -75.40625 14.039062 -80.863281 18.9375 -85.40625 C 23.832031 -89.945312 29.546875 -93.570312 36.078125 -96.28125 C 42.609375 -98.988281 49.296875 -100.34375 56.140625 -100.34375 C 62.515625 -100.34375 68.390625 -99.582031 73.765625 -98.0625 C 79.140625 -96.550781 82.941406 -95.039062 85.171875 -93.53125 L 88.515625 -91.265625 L 78.953125 -72.15625 C 78.398438 -72.625 77.566406 -73.195312 76.453125 -73.875 C 75.335938 -74.550781 73.109375 -75.445312 69.765625 -76.5625 C 66.421875 -77.675781 63.035156 -78.234375 59.609375 -78.234375 C 54.191406 -78.234375 49.332031 -77.359375 45.03125 -75.609375 C 40.726562 -73.859375 37.320312 -71.550781 34.8125 -68.6875 C 32.3125 -65.820312 30.398438 -62.734375 29.078125 -59.421875 C 27.765625 -56.117188 27.109375 -52.753906 27.109375 -49.328125 C 27.109375 -41.847656 29.914062 -35.140625 35.53125 -29.203125 C 41.144531 -23.273438 49.171875 -20.3125 59.609375 -20.3125 Z M 59.609375 -20.3125 "/></g></g></g><g fill="#1f3250" fill-opacity="1"><g transform="translate(596.4724, 426.078485)"><g><path d="M 29.625 -39.53125 L 29.625 0 L 7.171875 0 L 7.171875 -98.546875 L 29.625 -98.546875 L 29.625 -59.25 L 61.40625 -59.25 L 61.40625 -98.546875 L 83.859375 -98.546875 L 83.859375 0 L 61.40625 0 L 61.40625 -39.53125 Z M 29.625 -39.53125 "/></g></g></g><g fill="#1f3250" fill-opacity="1"><g transform="translate(685.083344, 426.078485)"><g><path d="M 63.546875 -98.546875 L 63.546875 -78.84375 L 29.625 -78.84375 L 29.625 -59.25 L 62.109375 -59.25 L 62.109375 -39.53125 L 29.625 -39.53125 L 29.625 -19.703125 L 63.546875 -19.703125 L 63.546875 0 L 7.171875 0 L 7.171875 -98.546875 Z M 63.546875 -98.546875 "/></g></g></g></svg>